<svg width="194" height="170" viewBox="0 0 194 170" fill="none" xmlns="http://www.w3.org/2000/svg">
<path d="M0.724952 88.9284C-1.1089 83.7498 -0.0680636 81.0659 11.0058 62.3487C23.3542 41.4591 22.1647 42.2159 42.9318 42.2159C58.0841 42.2159 60.8738 42.7765 63.5644 46.3854C67.041 51.0385 66.8852 51.4169 47.2934 85.0111C28.2964 117.589 28.084 118.073 30.5693 122.824C32.5872 126.692 34.1874 127.007 51.655 127.007C73.8524 127.007 71.2185 128.745 85.1529 104.941C91.143 94.7026 96.0498 85.7469 96.0498 85.0392C96.0498 84.3244 87.0788 68.3752 76.1182 49.5809C54.3527 12.2726 54.2961 12.1465 56.9725 6.4073C59.9888 -0.0817084 58.601 0.100489 103.895 0.324731C143.539 0.520943 143.539 0.520941 146.874 3.359C149.706 5.76961 153.508 11.8732 171.811 43.3932C198.731 89.7482 197.421 82.5865 183.31 106.566C170.346 128.598 172.335 127.267 151.936 127.596C135.559 127.855 132.606 127.295 130.008 123.427C126.829 118.697 127.098 118.052 145.642 86.2445C165.644 51.9354 165.389 52.454 163.853 48.5718C161.785 43.3652 160.22 42.9377 142.363 42.7415C120.258 42.4962 122.63 40.9616 108.88 64.3598C101.134 77.5411 98.1739 83.1962 98.1739 84.8219C98.1739 86.4827 103.258 95.7818 117.759 120.666C134.759 149.838 137.386 154.736 137.676 157.785C138.136 162.669 136.125 166.509 132.111 168.373C129.264 169.698 127.487 169.754 90.2933 169.754C51.4426 169.754 51.4426 169.754 48.0794 167.476C44.532 165.073 3.69168 97.3304 0.724952 88.9284Z" fill="url(#paint0_angular_7614_1153)"/>
<defs>
<radialGradient id="paint0_angular_7614_1153" cx="0" cy="0" r="1" gradientUnits="userSpaceOnUse" gradientTransform="translate(96.8961 85) rotate(120.492) scale(96.9663 43.3672)">
<stop stop-color="white"/>
<stop offset="0.503303" stop-color="#0052CC"/>
<stop offset="0.511473" stop-color="white"/>
<stop offset="1" stop-color="#0052CC"/>
</radialGradient>
</defs>
</svg>
